<svg xmlns="http://www.w3.org/2000/svg" width="2400" height="1500" viewBox="0 0 2400 1500" role="img" aria-labelledby="title desc">
  <title id="title">Dynamic Regime GNN final project poster</title>
  <desc id="desc">Heterogeneous GNN with Bloomberg supplier/customer/holder edges outperforms ablations on cross-sectional S&amp;P 500 return rank prediction with statistical significance.</desc>
  <defs>
    <linearGradient id="topBand" x1="0" y1="0" x2="1" y2="0">
      <stop offset="0%" stop-color="#0f766e"/>
      <stop offset="42%" stop-color="#2563eb"/>
      <stop offset="72%" stop-color="#7c3aed"/>
      <stop offset="100%" stop-color="#d97706"/>
    </linearGradient>
    <pattern id="dotGrid" width="38" height="38" patternUnits="userSpaceOnUse">
      <circle cx="4" cy="4" r="1.2" fill="#334155" opacity="0.07"/>
    </pattern>
    <filter id="softShadow" x="-8%" y="-8%" width="116%" height="116%">
      <feDropShadow dx="0" dy="5" stdDeviation="8" flood-color="#475569" flood-opacity="0.14"/>
    </filter>
    <linearGradient id="heroBg" x1="0" y1="0" x2="0" y2="1">
      <stop offset="0%" stop-color="#ecfdf5"/>
      <stop offset="100%" stop-color="#d1fae5"/>
    </linearGradient>
    <style>
      text { font-family: "Aptos", "Helvetica Neue", Arial, sans-serif; letter-spacing: 0; }
      .title { fill: #0f172a; font-size: 44px; font-weight: 820; }
      .subtitle { fill: #334155; font-size: 20px; font-weight: 500; }
      .authors { fill: #075985; font-size: 16px; font-weight: 700; }
      .eyebrow { fill: #0369a1; font-size: 13px; font-weight: 800; text-transform: uppercase; letter-spacing: 0; }
      .eyebrow-hero { fill: #047857; font-size: 13px; font-weight: 800; text-transform: uppercase; letter-spacing: 0.5px; }
      .section { fill: #0f172a; font-size: 24px; font-weight: 820; }
      .subhead { fill: #0f766e; font-size: 15px; font-weight: 800; }
      .subhead-hero { fill: #047857; font-size: 17px; font-weight: 820; }
      .body { fill: #1e293b; font-size: 15px; font-weight: 520; }
      .body2 { fill: #334155; font-size: 13.5px; font-weight: 500; }
      .tiny { fill: #64748b; font-size: 11.5px; font-weight: 580; }
      .code { fill: #0f4c81; font-size: 13px; font-family: "SFMono-Regular", "Consolas", monospace; font-weight: 550; }
      .metric { fill: #0f172a; font-size: 34px; font-weight: 860; }
      .metric2 { fill: #0f172a; font-size: 28px; font-weight: 850; }
      .metric-big { fill: #047857; font-size: 64px; font-weight: 880; }
      .metric-pval { fill: #b91c1c; font-size: 24px; font-weight: 820; font-family: "SFMono-Regular", "Consolas", monospace; }
      .metric-label { fill: #0369a1; font-size: 11px; font-weight: 800; text-transform: uppercase; letter-spacing: 0; }
      .metric-label-hero { fill: #047857; font-size: 13px; font-weight: 800; text-transform: uppercase; letter-spacing: 0.5px; }
      .panel { fill: #ffffff; fill-opacity: 0.96; stroke: #cbd5e1; stroke-width: 1.1; }
      .panel-hero { fill: url(#heroBg); stroke: #10b981; stroke-width: 2; }
      .panel-soft { fill: #f8fafc; stroke: #cbd5e1; stroke-width: 1; }
      .blue { fill: #eff6ff; stroke: #93c5fd; stroke-width: 1; }
      .green { fill: #ecfdf5; stroke: #86efac; stroke-width: 1; }
      .amber { fill: #fffbeb; stroke: #fcd34d; stroke-width: 1; }
      .rose { fill: #fff1f2; stroke: #fda4af; stroke-width: 1; }
      .chip { fill: #e0f2fe; stroke: #38bdf8; stroke-width: 1; }
      .chip2 { fill: #f0fdf4; stroke: #4ade80; stroke-width: 1; }
      .chip3 { fill: #fef3c7; stroke: #fbbf24; stroke-width: 1; }
      .chip-gh { fill: #0f172a; stroke: #0f172a; stroke-width: 1; }
      .chip-text { fill: #0f172a; font-size: 13px; font-weight: 760; }
      .chip-text-gh { fill: #ffffff; font-size: 13px; font-weight: 760; }
      .axis { stroke: #475569; stroke-width: 1.2; }
      .gridline { stroke: #cbd5e1; stroke-width: 0.9; }
      .baseline-line { stroke: #dc2626; stroke-width: 1.5; stroke-dasharray: 5 4; }
      .bar-label { fill: #334155; font-size: 12px; font-weight: 700; }
      .bar-value { fill: #0f172a; font-size: 12px; font-weight: 780; }
      .bar-value-hero { fill: #ffffff; font-size: 13px; font-weight: 820; }
      .legend { fill: #334155; font-size: 12.5px; font-weight: 650; }
      .link { fill: #075985; font-size: 11.5px; font-weight: 740; text-decoration: underline; }
      .star { fill: #b91c1c; font-size: 14px; font-weight: 820; }
    </style>
  </defs>

  <rect width="2400" height="1500" fill="#fbfaf6"/>
  <rect width="2400" height="1500" fill="url(#dotGrid)"/>
  <rect x="0" y="0" width="2400" height="18" fill="url(#topBand)"/>
  <rect x="0" y="1440" width="2400" height="60" fill="#0f172a" opacity="0.05"/>

  <!-- ============ TITLE BANNER ============ -->
  <g transform="translate(60,40)">
    <rect x="0" y="8" width="2280" height="170" rx="22" fill="#475569" opacity="0.10"/>
    <rect class="panel" x="0" y="0" width="2280" height="170" rx="22"/>
    <rect x="0" y="0" width="2280" height="8" rx="4" fill="url(#topBand)"/>
    <text class="title" x="36" y="58">Heterogeneous GNN with Bloomberg Edges</text>
    <text class="title" x="36" y="102">for Cross-Sectional S&amp;P 500 Return Prediction</text>
    <text class="subtitle" x="38" y="130">A statistically rigorous evaluation of supplier, customer, and institutional-holder graph structure.</text>
    <text class="authors" x="38" y="156">Srotriyo Sengupta and Yifan Zhang &#183; ECE 538 Final Project</text>
    <g transform="translate(1520,38)">
      <rect class="chip2" x="0" y="0" width="200" height="38" rx="13"/>
      <text class="chip-text" x="100" y="24" text-anchor="middle">n=5 seeds, 3 cutoffs</text>
      <rect class="chip" x="218" y="0" width="178" height="38" rx="13"/>
      <text class="chip-text" x="307" y="24" text-anchor="middle">500 S&amp;P stocks, 2015&#8211;24</text>
      <rect class="chip3" x="414" y="0" width="138" height="38" rx="13"/>
      <text class="chip-text" x="483" y="24" text-anchor="middle">NVIDIA A100/L40S</text>
      <rect class="chip-gh" x="570" y="0" width="190" height="38" rx="13"/>
      <text class="chip-text-gh" x="665" y="24" text-anchor="middle">&#9733; github.com/...</text>
    </g>
    <text class="tiny" x="1520" y="132">Repo:</text>
    <text class="link" x="1560" y="132">github.com/SROTRIYOSENGUPTA/GNN_MarketRegimeDetectionandEarlyWarning</text>
  </g>

  <!-- ============ HERO HEADLINE ============ -->
  <g transform="translate(60,232)">
    <rect x="0" y="8" width="2280" height="128" rx="22" fill="#10b981" opacity="0.18"/>
    <rect class="panel-hero" x="0" y="0" width="2280" height="128" rx="22"/>
    <text class="eyebrow-hero" x="32" y="34">Headline result</text>
    <text class="section" x="32" y="64" fill="#064e3b">Bloomberg-augmented heterogeneous GNN significantly outperforms every alternative on cross-sectional 5-day rank prediction.</text>
    <g transform="translate(32,82)">
      <text class="metric-big" x="0" y="34">0.370</text>
      <text class="metric-label-hero" x="0" y="56">per-date macro-F1 (mean of 5 seeds, &#177;0.004)</text>
    </g>
    <g transform="translate(420,86)">
      <text class="metric2" x="0" y="28" fill="#047857">+0.018</text>
      <text class="metric-label-hero" x="0" y="50">vs No-graph LSTM</text>
      <text class="metric-pval" x="118" y="28">p &lt; .001</text>
    </g>
    <g transform="translate(820,86)">
      <text class="metric2" x="0" y="28" fill="#047857">+0.020</text>
      <text class="metric-label-hero" x="0" y="50">vs Correlation-only graph</text>
      <text class="metric-pval" x="118" y="28">p &lt; .01</text>
    </g>
    <g transform="translate(1220,86)">
      <text class="metric2" x="0" y="28" fill="#047857">+0.015</text>
      <text class="metric-label-hero" x="0" y="50">vs Sector + synthetic proxy</text>
      <text class="metric-pval" x="118" y="28">p &lt; .05</text>
    </g>
    <g transform="translate(1660,82)">
      <rect class="panel-soft" x="0" y="0" width="588" height="58" rx="12"/>
      <text class="subhead-hero" x="20" y="26">Effect is specific to real economic edges.</text>
      <text class="body2" x="20" y="48">Random/sector proxy graphs are statistically indistinguishable from no-graph at all.</text>
    </g>
  </g>

  <!-- ============ LEFT COLUMN ============ -->
  <g transform="translate(60,380)">
    <rect class="panel" x="0" y="0" width="700" height="350" rx="20" filter="url(#softShadow)"/>
    <text class="eyebrow" x="28" y="38">Task &amp; Motivation</text>
    <text class="section" x="28" y="70">Cross-sectional Return Rank</text>
    <text class="body2" x="28" y="100">The original regime-classification target is defined by percentile</text>
    <text class="body2" x="28" y="119">rules on aggregate market features. Logistic regression on those</text>
    <text class="body2" x="28" y="138">same features hits AUC&#8201;&#8776;&#8201;0.96 &#8212; exposing label leakage that</text>
    <text class="body2" x="28" y="157">prevents the GNN from demonstrating its value.</text>

    <rect class="panel-soft" x="28" y="180" width="644" height="148" rx="14"/>
    <text class="subhead" x="46" y="208">Reformulation (leak-free):</text>
    <text class="code" x="46" y="234">For each day t and stock i, label = rank-quantile of</text>
    <text class="code" x="46" y="254">forward 5-day return across all stocks on day t.</text>
    <g transform="translate(46,266)">
      <rect x="0" y="0" width="120" height="40" rx="8" fill="#fee2e2" stroke="#fca5a5"/>
      <text class="chip-text" x="60" y="26" text-anchor="middle">Down (bot 20%)</text>
      <rect x="138" y="0" width="120" height="40" rx="8" fill="#f3f4f6" stroke="#9ca3af"/>
      <text class="chip-text" x="198" y="26" text-anchor="middle">Neutral (mid 60%)</text>
      <rect x="276" y="0" width="120" height="40" rx="8" fill="#dcfce7" stroke="#86efac"/>
      <text class="chip-text" x="336" y="26" text-anchor="middle">Up (top 20%)</text>
    </g>
    <text class="body2" x="416" y="294">Random baseline: 0.333</text>
  </g>

  <g transform="translate(60,748)">
    <rect class="panel" x="0" y="0" width="700" height="320" rx="20" filter="url(#softShadow)"/>
    <text class="eyebrow" x="28" y="38">Architecture</text>
    <text class="section" x="28" y="70">Dynamic Heterogeneous GNN</text>

    <g transform="translate(36,98)">
      <rect class="chip" x="0" y="0" width="116" height="42" rx="14"/>
      <text class="chip-text" x="58" y="27" text-anchor="middle">Per-stock seq</text>
      <line x1="126" y1="21" x2="170" y2="21" stroke="#64748b" stroke-width="3"/>
      <polygon points="170,21 160,15 160,27" fill="#64748b"/>
      <rect class="chip" x="182" y="0" width="120" height="42" rx="14"/>
      <text class="chip-text" x="242" y="27" text-anchor="middle">Feat encoder</text>
      <line x1="312" y1="21" x2="356" y2="21" stroke="#64748b" stroke-width="3"/>
      <polygon points="356,21 346,15 346,27" fill="#64748b"/>
      <rect class="chip2" x="368" y="0" width="138" height="42" rx="14"/>
      <text class="chip-text" x="437" y="27" text-anchor="middle">Multi-rel attention</text>
      <line x1="516" y1="21" x2="560" y2="21" stroke="#64748b" stroke-width="3"/>
      <polygon points="560,21 550,15 550,27" fill="#64748b"/>
      <rect class="chip3" x="572" y="0" width="92" height="42" rx="14"/>
      <text class="chip-text" x="618" y="27" text-anchor="middle">LSTM &#8594; 3-cls</text>
    </g>

    <g transform="translate(32,166)">
      <rect class="blue" x="0" y="0" width="200" height="124" rx="14"/>
      <text class="subhead" x="14" y="28">Correlation</text>
      <text class="body2" x="14" y="52">Rolling 30-day top-K</text>
      <text class="body2" x="14" y="72">positive neighbours</text>
      <text class="code" x="14" y="98">~10k edges</text>
      <text class="tiny" x="14" y="116">dynamic, per-day</text>

      <rect class="green" x="220" y="0" width="200" height="124" rx="14"/>
      <text class="subhead" x="234" y="28">Supplier &amp; customer</text>
      <text class="body2" x="234" y="52">Bloomberg "Top 5"</text>
      <text class="body2" x="234" y="72">supplier/customer per ticker</text>
      <text class="code" x="234" y="98">1,062 in-universe</text>
      <text class="tiny" x="234" y="116">directed, sparse, static</text>

      <rect class="amber" x="440" y="0" width="200" height="124" rx="14"/>
      <text class="subhead" x="454" y="28">Institutional holders</text>
      <text class="body2" x="454" y="52">Jaccard &#8805; 0.4 of</text>
      <text class="body2" x="454" y="72">Top-20 holder sets</text>
      <text class="code" x="454" y="98">~72k edges</text>
      <text class="tiny" x="454" y="116">undirected, weighted</text>
    </g>
    <text class="tiny" x="28" y="306">1.04 M parameters &#183; per-relation scaled-dot-product attention &#183; class-weighted CE &#183; AdamW + cosine LR</text>
  </g>

  <g transform="translate(60,1086)">
    <rect class="panel" x="0" y="0" width="700" height="310" rx="20" filter="url(#softShadow)"/>
    <text class="eyebrow" x="28" y="38">Data</text>
    <text class="section" x="28" y="70">Bloomberg-Augmented S&amp;P 500 Workbook</text>
    <g transform="translate(28,98)">
      <rect class="green" x="0" y="0" width="158" height="70" rx="14"/>
      <text class="metric2" x="18" y="42">500</text>
      <text class="metric-label" x="18" y="61">tickers</text>
      <rect class="green" x="174" y="0" width="158" height="70" rx="14"/>
      <text class="metric2" x="192" y="42">1.83M</text>
      <text class="metric-label" x="192" y="61">price rows</text>
      <rect class="green" x="348" y="0" width="158" height="70" rx="14"/>
      <text class="metric2" x="366" y="42">10 yr</text>
      <text class="metric-label" x="366" y="61">2015&#8211;2024</text>
      <rect class="green" x="522" y="0" width="138" height="70" rx="14"/>
      <text class="metric2" x="540" y="42">2,772</text>
      <text class="metric-label" x="540" y="61">train samples</text>
    </g>
    <text class="body2" x="28" y="208">Price/volume + Top Suppliers, Top Customers, Top 20 Holders</text>
    <text class="body2" x="28" y="228">per ticker. Workbook is proprietary &#8212; not redistributable.</text>
    <text class="body2" x="28" y="252">Validation: held-out 2022Q4&#8211;2024 (covers 2022 crash, SVB, Aug 2024 carry unwind).</text>
    <text class="code" x="28" y="284">Train: 2015-01-01 &#8594; 2022-09-30   Val: 2022-10-01 &#8594; 2024-12-31</text>
  </g>

  <!-- ============ MIDDLE COLUMN: Main Ablation Chart ============ -->
  <g transform="translate(800,380)">
    <rect class="panel" x="0" y="0" width="800" height="500" rx="20" filter="url(#softShadow)"/>
    <text class="eyebrow" x="28" y="38">Figure 1 &#183; Main Ablation</text>
    <text class="section" x="28" y="70">Only Real Bloomberg Edges Help</text>
    <text class="body2" x="28" y="96">Per-date macro-F1 on val split (best epoch, mean &#177; std of 5 seeds).</text>

    <!-- Bar chart -->
    <g transform="translate(80,140)">
      <!-- Axes -->
      <line class="axis" x1="0" y1="280" x2="700" y2="280"/>
      <line class="axis" x1="0" y1="0" x2="0" y2="280"/>
      <!-- Y axis ticks -->
      <line class="gridline" x1="0" y1="0" x2="700" y2="0"/>
      <line class="gridline" x1="0" y1="70" x2="700" y2="70"/>
      <line class="gridline" x1="0" y1="140" x2="700" y2="140"/>
      <line class="gridline" x1="0" y1="210" x2="700" y2="210"/>
      <text class="tiny" x="-10" y="284" text-anchor="end">0.33</text>
      <text class="tiny" x="-10" y="214" text-anchor="end">0.34</text>
      <text class="tiny" x="-10" y="144" text-anchor="end">0.35</text>
      <text class="tiny" x="-10" y="74" text-anchor="end">0.36</text>
      <text class="tiny" x="-10" y="4" text-anchor="end">0.37</text>
      <!-- Baseline line (random = 0.333) -->
      <line class="baseline-line" x1="0" y1="280" x2="700" y2="280"/>
      <text class="tiny" x="610" y="276" fill="#b91c1c">random 0.333</text>

      <!-- Bars: Bloomberg=0.370 (262), Proxy=0.355 (157), CorrOnly=0.350 (119), NoGraph=0.352 (133) -->
      <!-- Scale: y from 0.33 (bottom=280) to 0.37 (top=0); 0.01 = 70px; so 0.370 = 0; 0.3699 ~ 1; etc -->
      <!-- bloomberg 0.3699 -> 0.0399 above .33 -> y = 280 - 39.9*7 = 280 - 279.3 = 0.7 -> use bar top = 0, height = 280 -->
      <rect x="40" y="7" width="100" height="273" rx="6" fill="#10b981" stroke="#047857" stroke-width="1.5"/>
      <text class="bar-value-hero" x="90" y="32" text-anchor="middle">0.370</text>
      <text class="bar-label" x="90" y="306" text-anchor="middle">Bloomberg</text>
      <text class="tiny" x="90" y="324" text-anchor="middle">holder + supply + corr</text>

      <!-- proxy 0.3554 -> 0.0254 above .33 -> y = 280 - 177.8 = 102 -->
      <rect x="190" y="102" width="100" height="178" rx="6" fill="#94a3b8" stroke="#475569" stroke-width="1"/>
      <text class="bar-value" x="240" y="94" text-anchor="middle">0.355</text>
      <text class="bar-label" x="240" y="306" text-anchor="middle">Proxy</text>
      <text class="tiny" x="240" y="324" text-anchor="middle">sector + synthetic + corr</text>

      <!-- corronly 0.3496 -> 0.0196 -> 280 - 137.2 = 143 -->
      <rect x="340" y="143" width="100" height="137" rx="6" fill="#94a3b8" stroke="#475569" stroke-width="1"/>
      <text class="bar-value" x="390" y="135" text-anchor="middle">0.350</text>
      <text class="bar-label" x="390" y="306" text-anchor="middle">CorrOnly</text>
      <text class="tiny" x="390" y="324" text-anchor="middle">correlation only</text>

      <!-- nograph 0.3518 -> 0.0218 -> 280 - 152.6 = 127 -->
      <rect x="490" y="127" width="100" height="153" rx="6" fill="#94a3b8" stroke="#475569" stroke-width="1"/>
      <text class="bar-value" x="540" y="119" text-anchor="middle">0.352</text>
      <text class="bar-label" x="540" y="306" text-anchor="middle">No-graph</text>
      <text class="tiny" x="540" y="324" text-anchor="middle">per-stock LSTM</text>
    </g>

    <!-- Significance brackets -->
    <g transform="translate(80,140)" fill="none" stroke="#0f172a" stroke-width="1.2">
      <path d="M90,-8 L90,-20 L540,-20 L540,-8" />
      <text x="315" y="-26" text-anchor="middle" fill="#b91c1c" font-size="14" font-weight="820" stroke="none">vs No-graph: p &lt; .001</text>
    </g>

    <text class="body2" x="28" y="478">Three non-Bloomberg configs are statistically indistinguishable from each other (all paired t-tests n.s.).</text>
  </g>

  <!-- ============ MIDDLE: Edge Decomposition ============ -->
  <g transform="translate(800,898)">
    <rect class="panel" x="0" y="0" width="800" height="498" rx="20" filter="url(#softShadow)"/>
    <text class="eyebrow" x="28" y="38">Figure 2 &#183; Edge Decomposition</text>
    <text class="section" x="28" y="70">Supplier/Customer Edges Carry the Signal</text>
    <text class="body2" x="28" y="96">Isolating each Bloomberg edge type (n=3 seeds, &#177;std).</text>

    <g transform="translate(60,138)">
      <line class="axis" x1="0" y1="270" x2="700" y2="270"/>
      <line class="axis" x1="0" y1="0" x2="0" y2="270"/>
      <line class="gridline" x1="0" y1="0" x2="700" y2="0"/>
      <line class="gridline" x1="0" y1="67.5" x2="700" y2="67.5"/>
      <line class="gridline" x1="0" y1="135" x2="700" y2="135"/>
      <line class="gridline" x1="0" y1="202.5" x2="700" y2="202.5"/>
      <text class="tiny" x="-10" y="274" text-anchor="end">0.33</text>
      <text class="tiny" x="-10" y="206" text-anchor="end">0.34</text>
      <text class="tiny" x="-10" y="139" text-anchor="end">0.35</text>
      <text class="tiny" x="-10" y="71" text-anchor="end">0.36</text>
      <text class="tiny" x="-10" y="4" text-anchor="end">0.37</text>
      <line class="baseline-line" x1="0" y1="270" x2="700" y2="270"/>

      <!-- BBG 0.3720 -> y = 270 - 42*6.43 hmm let me redo. range 0.33->0.37 = 270px, so 0.01 = 67.5px -->
      <!-- 0.3720 -> 0.042 above 0.33 -> 270 - 42*6.75 = 270 - 283.5 = -13.5; clamp to 0 -->
      <rect x="22" y="0" width="92" height="270" rx="6" fill="#10b981" stroke="#047857" stroke-width="1.5"/>
      <text class="bar-value-hero" x="68" y="22" text-anchor="middle">0.372</text>
      <text class="bar-label" x="68" y="296" text-anchor="middle">Bloomberg</text>
      <text class="tiny" x="68" y="312" text-anchor="middle">full</text>

      <!-- Supply-only 0.3673 -> 0.0373 -> y = 270-251.8 = 18 -->
      <rect x="138" y="18" width="92" height="252" rx="6" fill="#22c55e" stroke="#15803d" stroke-width="1.5"/>
      <text class="bar-value" x="184" y="10" text-anchor="middle">0.367</text>
      <text class="bar-label" x="184" y="296" text-anchor="middle">Supply-only</text>
      <text class="tiny" x="184" y="312" text-anchor="middle">+ corr</text>

      <!-- corronly 0.3518 -> 0.0218 -> y = 270 - 147.1 = 123 -->
      <rect x="254" y="123" width="92" height="147" rx="6" fill="#94a3b8" stroke="#475569" stroke-width="1"/>
      <text class="bar-value" x="300" y="115" text-anchor="middle">0.352</text>
      <text class="bar-label" x="300" y="296" text-anchor="middle">CorrOnly</text>
      <text class="tiny" x="300" y="312" text-anchor="middle">no static</text>

      <!-- Proxy 0.3534 -> 0.0234 -> y = 270 - 158 = 112 -->
      <rect x="370" y="112" width="92" height="158" rx="6" fill="#94a3b8" stroke="#475569" stroke-width="1"/>
      <text class="bar-value" x="416" y="104" text-anchor="middle">0.353</text>
      <text class="bar-label" x="416" y="296" text-anchor="middle">Proxy</text>
      <text class="tiny" x="416" y="312" text-anchor="middle">random</text>

      <!-- No-graph 0.3514 -> 0.0214 -> y = 270 - 144.5 = 126 -->
      <rect x="486" y="126" width="92" height="144" rx="6" fill="#94a3b8" stroke="#475569" stroke-width="1"/>
      <text class="bar-value" x="532" y="118" text-anchor="middle">0.351</text>
      <text class="bar-label" x="532" y="296" text-anchor="middle">No-graph</text>
      <text class="tiny" x="532" y="312" text-anchor="middle">LSTM only</text>

      <!-- Holder-only 0.3426 -> 0.0126 -> y = 270 - 85.1 = 185 -->
      <rect x="602" y="185" width="92" height="85" rx="6" fill="#f87171" stroke="#b91c1c" stroke-width="1.5"/>
      <text class="bar-value" x="648" y="177" text-anchor="middle">0.343</text>
      <text class="bar-label" x="648" y="296" text-anchor="middle">Holder-only</text>
      <text class="tiny" x="648" y="312" text-anchor="middle">+ corr</text>
    </g>

    <!-- Annotation arrow -->
    <g transform="translate(80,140)" fill="none" stroke="#047857" stroke-width="1.5">
      <path d="M184,18 Q184,-14 250,-14"/>
      <polygon points="184,18 178,8 190,8" fill="#047857" stroke="none"/>
    </g>
    <text x="340" y="120" class="subhead-hero" fill="#047857">Supply-only reproduces 96% of the gain (p &lt; .01 vs No-graph)</text>

    <rect class="panel-soft" x="28" y="450" width="744" height="32" rx="8"/>
    <text class="body2" x="42" y="471">Holder Jaccard is dominated by universal owners (Vanguard, BlackRock) &#8212; harmful alone, marginally helpful combined.</text>
  </g>

  <!-- ============ RIGHT COLUMN: Walk-Forward ============ -->
  <g transform="translate(1640,380)">
    <rect class="panel" x="0" y="0" width="700" height="500" rx="20" filter="url(#softShadow)"/>
    <text class="eyebrow" x="28" y="38">Figure 3 &#183; Walk-Forward</text>
    <text class="section" x="28" y="70">Effect Stable Across Regimes</text>
    <text class="body2" x="28" y="96">Bloomberg vs No-graph at three train cutoffs (n=3 seeds each).</text>

    <g transform="translate(76,148)">
      <line class="axis" x1="0" y1="260" x2="580" y2="260"/>
      <line class="axis" x1="0" y1="0" x2="0" y2="260"/>
      <line class="gridline" x1="0" y1="0" x2="580" y2="0"/>
      <line class="gridline" x1="0" y1="65" x2="580" y2="65"/>
      <line class="gridline" x1="0" y1="130" x2="580" y2="130"/>
      <line class="gridline" x1="0" y1="195" x2="580" y2="195"/>
      <text class="tiny" x="-10" y="264" text-anchor="end">0.33</text>
      <text class="tiny" x="-10" y="199" text-anchor="end">0.34</text>
      <text class="tiny" x="-10" y="134" text-anchor="end">0.35</text>
      <text class="tiny" x="-10" y="69" text-anchor="end">0.36</text>
      <text class="tiny" x="-10" y="4" text-anchor="end">0.37</text>
      <line class="baseline-line" x1="0" y1="260" x2="580" y2="260"/>

      <!-- 2021 cutoff -->
      <!-- BBG 0.3626 -> 0.0326 -> y = 260 - 211.9 = 48 -->
      <rect x="20" y="48" width="60" height="212" rx="6" fill="#10b981" stroke="#047857" stroke-width="1.5"/>
      <text class="bar-value" x="50" y="40" text-anchor="middle">0.363</text>
      <!-- None 0.3482 -> 0.0182 -> y = 260 - 118.3 = 142 -->
      <rect x="84" y="142" width="60" height="118" rx="6" fill="#94a3b8" stroke="#475569" stroke-width="1"/>
      <text class="bar-value" x="114" y="134" text-anchor="middle">0.348</text>
      <text class="bar-label" x="82" y="286" text-anchor="middle">cutoff 2021-09</text>
      <text class="metric-pval" x="82" y="306" text-anchor="middle" font-size="14">p &lt; .01</text>

      <!-- 2022 cutoff -->
      <!-- BBG 0.3720 -> 0.0420 -> y = 260 - 273 = -13 -> 0 -->
      <rect x="220" y="0" width="60" height="260" rx="6" fill="#10b981" stroke="#047857" stroke-width="1.5"/>
      <text class="bar-value-hero" x="250" y="22" text-anchor="middle">0.372</text>
      <!-- None 0.3514 -> 0.0214 -> y = 260 - 139.1 = 121 -->
      <rect x="284" y="121" width="60" height="139" rx="6" fill="#94a3b8" stroke="#475569" stroke-width="1"/>
      <text class="bar-value" x="314" y="113" text-anchor="middle">0.351</text>
      <text class="bar-label" x="282" y="286" text-anchor="middle">cutoff 2022-09</text>
      <text class="metric-pval" x="282" y="306" text-anchor="middle" font-size="14">p &lt; .01</text>

      <!-- 2023 cutoff -->
      <!-- BBG 0.3673 -> 0.0373 -> y = 260 - 242.5 = 18 -->
      <rect x="420" y="18" width="60" height="242" rx="6" fill="#10b981" stroke="#047857" stroke-width="1.5"/>
      <text class="bar-value" x="450" y="10" text-anchor="middle">0.367</text>
      <!-- None 0.3513 -> 0.0213 -> y = 260 - 138.5 = 122 -->
      <rect x="484" y="122" width="60" height="138" rx="6" fill="#94a3b8" stroke="#475569" stroke-width="1"/>
      <text class="bar-value" x="514" y="114" text-anchor="middle">0.351</text>
      <text class="bar-label" x="482" y="286" text-anchor="middle">cutoff 2023-09</text>
      <text class="metric-pval" x="482" y="306" text-anchor="middle" font-size="14">p &lt; .20</text>
    </g>

    <g transform="translate(28,470)">
      <rect x="0" y="0" width="12" height="12" rx="3" fill="#10b981" stroke="#047857"/>
      <text class="legend" x="18" y="11">Bloomberg GNN</text>
      <rect x="148" y="0" width="12" height="12" rx="3" fill="#94a3b8" stroke="#475569"/>
      <text class="legend" x="166" y="11">No-graph LSTM</text>
      <text class="tiny" x="298" y="11">&#916; macro-F1: +0.015 to +0.021 across all three windows</text>
    </g>
  </g>

  <!-- ============ RIGHT: Takeaways ============ -->
  <g transform="translate(1640,898)">
    <rect class="panel" x="0" y="0" width="700" height="280" rx="20" filter="url(#softShadow)"/>
    <text class="eyebrow" x="28" y="38">Takeaways</text>
    <text class="section" x="28" y="70">Three Robust Findings</text>

    <g transform="translate(28,100)">
      <rect class="green" x="0" y="0" width="644" height="50" rx="12"/>
      <text class="star" x="14" y="32">&#9733;</text>
      <text class="body" x="38" y="32" font-weight="700">Real Bloomberg edges &gt; every ablation (p &lt; .001 vs No-graph).</text>
    </g>
    <g transform="translate(28,158)">
      <rect class="green" x="0" y="0" width="644" height="50" rx="12"/>
      <text class="star" x="14" y="32">&#9733;</text>
      <text class="body" x="38" y="32" font-weight="700">Supplier/customer edges alone reproduce 96% of the gain.</text>
    </g>
    <g transform="translate(28,216)">
      <rect class="green" x="0" y="0" width="644" height="50" rx="12"/>
      <text class="star" x="14" y="32">&#9733;</text>
      <text class="body" x="38" y="32" font-weight="700">Effect direction stable across 3 walk-forward train cutoffs.</text>
    </g>
  </g>

  <g transform="translate(1640,1196)">
    <rect class="panel" x="0" y="0" width="700" height="200" rx="20" filter="url(#softShadow)"/>
    <text class="eyebrow" x="28" y="38">Methodology &amp; Reproducibility</text>
    <text class="section" x="28" y="70">Code &amp; Data</text>
    <text class="body2" x="28" y="100">Per-stock features (price/vol/return/sector) &#215; 30-day windows.</text>
    <text class="body2" x="28" y="120">Class-weighted CE; AdamW + cosine LR; gradient clipping.</text>
    <text class="code" x="28" y="148">python scripts/run_xsec_rank.py --edge-mode bloomberg --seed 42</text>
    <text class="code" x="28" y="170">python scripts/analyze_results.py --figures   # reproduces all tables</text>
    <text class="link" x="28" y="190">github.com/SROTRIYOSENGUPTA/GNN_MarketRegimeDetectionandEarlyWarning</text>
  </g>

  <!-- ============ FOOTER ============ -->
  <text class="tiny" x="60" y="1468">Dynamic Regime GNN &#183; ECE 538 Final Project &#183; aligned with RESULTS.md &amp; Report.md</text>
  <text class="tiny" x="1200" y="1468" text-anchor="middle">All numbers reproducible via scripts/analyze_results.py</text>
  <text class="tiny" x="2340" y="1468" text-anchor="end">5 seeds &#183; 3 train cutoffs &#183; paired t-tests</text>
</svg>
