<svg xmlns="http://www.w3.org/2000/svg" width="940" height="480" viewBox="0 0 940 480" role="img">
<style>
  text { font-family: 'Aptos', 'Helvetica Neue', Arial, sans-serif; fill: #1f2933; }
  .title { font-size: 22px; font-weight: 700; }
  .subtitle { font-size: 13px; fill: #64748b; }
  .axis { stroke: #334155; stroke-width: 1.2; }
  .grid { stroke: #d8dee9; stroke-width: 1; }
  .tick { font-size: 12px; fill: #475569; }
  .label { font-size: 12px; fill: #334155; }
  .legend { font-size: 13px; fill: #334155; }
  .value { font-size: 11px; fill: #1f2933; }
</style>
<rect width="940" height="480" rx="18" fill="#fbfaf6"/>
<text class="title" x="76" y="38">Train and Validation Label Distribution</text>
<text class="subtitle" x="76" y="60">The selected split contains Stress and transition-positive examples in validation.</text>
<line class="grid" x1="76" y1="388.0" x2="904" y2="388.0"/>
<text class="tick" x="64" y="392.0" text-anchor="end">0</text>
<line class="grid" x1="76" y1="327.6" x2="904" y2="327.6"/>
<text class="tick" x="64" y="331.6" text-anchor="end">120</text>
<line class="grid" x1="76" y1="267.2" x2="904" y2="267.2"/>
<text class="tick" x="64" y="271.2" text-anchor="end">240</text>
<line class="grid" x1="76" y1="206.8" x2="904" y2="206.8"/>
<text class="tick" x="64" y="210.8" text-anchor="end">360</text>
<line class="grid" x1="76" y1="146.4" x2="904" y2="146.4"/>
<text class="tick" x="64" y="150.4" text-anchor="end">480</text>
<line class="grid" x1="76" y1="86.0" x2="904" y2="86.0"/>
<text class="tick" x="64" y="90.0" text-anchor="end">600</text>
<line class="axis" x1="76" y1="86" x2="76" y2="388"/>
<line class="axis" x1="76" y1="388" x2="904" y2="388"/>
<rect x="105.8" y="117.2" width="45.6" height="270.8" rx="4" fill="#2563eb"/>
<text class="value" x="128.6" y="111.2" text-anchor="middle">538</text>
<rect x="271.4" y="378.9" width="45.6" height="9.1" rx="4" fill="#2563eb"/>
<text class="value" x="294.2" y="372.9" text-anchor="middle">18</text>
<rect x="437.0" y="273.7" width="45.6" height="114.3" rx="4" fill="#2563eb"/>
<text class="value" x="459.8" y="267.7" text-anchor="middle">227</text>
<rect x="602.6" y="329.1" width="45.6" height="58.9" rx="4" fill="#2563eb"/>
<text class="value" x="625.4" y="323.1" text-anchor="middle">117</text>
<rect x="768.2" y="297.9" width="45.6" height="90.1" rx="4" fill="#2563eb"/>
<text class="value" x="791.0" y="291.9" text-anchor="middle">179</text>
<rect x="158.8" y="209.8" width="45.6" height="178.2" rx="4" fill="#d97706"/>
<text class="value" x="181.6" y="203.8" text-anchor="middle">354</text>
<rect x="324.4" y="380.4" width="45.6" height="7.6" rx="4" fill="#d97706"/>
<text class="value" x="347.2" y="374.4" text-anchor="middle">15</text>
<rect x="490.0" y="259.6" width="45.6" height="128.3" rx="4" fill="#d97706"/>
<text class="value" x="512.8" y="253.6" text-anchor="middle">255</text>
<rect x="655.6" y="333.1" width="45.6" height="54.9" rx="4" fill="#d97706"/>
<text class="value" x="678.4" y="327.1" text-anchor="middle">109</text>
<rect x="821.2" y="316.5" width="45.6" height="71.5" rx="4" fill="#d97706"/>
<text class="value" x="844.0" y="310.5" text-anchor="middle">142</text>
<text class="tick" x="158.8" y="414" text-anchor="middle">Bull</text>
<text class="tick" x="324.4" y="414" text-anchor="middle">Crash</text>
<text class="tick" x="490.0" y="414" text-anchor="middle">Liquidity</text>
<text class="tick" x="655.6" y="414" text-anchor="middle">Stress</text>
<text class="tick" x="821.2" y="414" text-anchor="middle">Transition=1</text>
<rect x="76" y="439" width="14" height="14" rx="3" fill="#2563eb"/>
<text class="legend" x="98" y="450">Train</text>
<rect x="246" y="439" width="14" height="14" rx="3" fill="#d97706"/>
<text class="legend" x="268" y="450">Validation</text>
</svg>
